<?xml version="1.0" encoding="UTF-8"?>
<svg id="Layer_1" data-name="Layer 1" xmlns="http://www.w3.org/2000/svg" viewBox="0 0 1024 1024">
  <defs>
    <style>
      .cls-1, .cls-2 {
        fill: #003876;
        stroke: #fff;
        stroke-miterlimit: 10;
      }

      .cls-3 {
        fill: #f7f7f7;
      }

      .cls-3, .cls-2, .cls-4, .cls-5, .cls-6, .cls-7, .cls-8, .cls-9, .cls-10, .cls-11 {
        fill-rule: evenodd;
      }

      .cls-4 {
        fill: #f8f8f8;
      }

      .cls-5 {
        fill: #fbfbfb;
      }

      .cls-6 {
        fill: #f4f4f4;
      }

      .cls-7 {
        fill: #fcfcfc;
      }

      .cls-8 {
        fill: #565656;
      }

      .cls-9 {
        fill: #fafafa;
      }

      .cls-10 {
        fill: #fdfdfd;
      }

      .cls-11 {
        fill: #555;
      }
    </style>
  </defs>
  <path class="cls-1" d="M-.5-.5H1023.5V1023.5H-.5V-.5Z"/>
  <path class="cls-10" d="M84.5,147.5c78.95,15.99,157.95,31.82,237,47.5.99,22.43,1.33,44.93,1,67.5-64.27-11.15-128.27-23.65-192-37.5-31.91-12.2-47.12-44.51-46-77.5Z"/>
  <path class="cls-10" d="M473.5,172.5c64.33.48,128.66.65,193,.5,18.89.48,40.53,6.16,50.5,23.5,5.75,26.65-6.12,52.68-18,76-1.98,4.46-2.81,9.13-2.5,14,7.7.5,15.36,1.34,23,2.5,2.86,3.18,2.27,8.21,1,12-48.19,15.73-92.29,39.34-135,66-1.29.68-2.45.51-3.5-.5-2.55,4.22-6.05,7.39-10.5,9.5-36.11,14.3-68.77,38.01-106,49,19.06-34.88,41.06-67.71,66-98.5-1.97-.87-3.97-.7-6,.5-26.88,13.01-54.68,28.58-85,30,23.25-31.65,47.58-62.48,73-92.5-1.22-1.11-2.56-1.28-4-.5-21.27,9.9-43.61,15.24-67,16,25.54-28.65,49.12-59.74,80-83-19.89.38-42.38-2.67-49-24.5Z"/>
  <path class="cls-10" d="M337.5,199.5c36.26,9.5,87.47,5.51,101,49-.08,1.8-.58,3.47-1.5,5-6.26,7.25-11.26,15.25-15,24-27.44,1.52-54.86-6.63-81.5-12.5-1.66-21.74-2.66-43.58-3-65.5Z"/>
  <path class="cls-2" d="M689.5,204.5c7.36,54.32-71.62,54.79-67,1,22.51.33,44.84,0,67-1Z"/>
  <path class="cls-5" d="M739.5,208.5c61.15-2.13,91.09,58.89,56.5,108-3.86-41.56-40.01-46.38-74.5-44,6.88-20.98,15.82-41.78,18-64Z"/>
  <path class="cls-2" d="M744.5,228.5c5.01.69,13.38-.62,16,4.5-2.59,7.13-7.59,9.8-15,8-.96-4.07-1.3-8.23-1-12.5Z"/>
  <path class="cls-10" d="M107.5,241.5c71.38,13.51,142.71,27.34,214,41.5,4.31,20.02-.12,42.69-.5,63.5-57.9-6.07-116.64-21.86-174.5-32.5-29.96-14.85-42.96-39.02-39-72.5Z"/>
  <path class="cls-10" d="M337.5,286.5c28.12,1.46,55.16,10.57,83,14.5,8.38.8,25.29-.51,31,5.5-13.25,18.78-26.7,37.81-39,57-68.07-16.15-81.49,4.98-75-77Z"/>
  <path class="cls-10" d="M131.5,330.5c63.29,12.69,126.62,25.19,190,37.5.75,20.48,1.08,40.98,1,61.5-47.13-2.79-95.11-14.93-142-23.5-35.56-12.61-51.89-37.78-49-75.5Z"/>
  <path class="cls-7" d="M779.5,594.5c.23-54.28-1.68-107.85-1-162-48.79-7.68-97.38-20.38-147-20-.56,4.35-1.22,8.69-2,13,28.36.04,44.21-4.77,41,31,6.08-.21,10.25,2.45,12.5,8-.55,15.67-.55,31.34,0,47-2.14,11.59-15.44,10.53-24.5,9.5-3.77-1.44-6.61-3.94-8.5-7.5-.53-17.34-.87-34.68-1-52,1.71-2.04,3.71-3.71,6-5,1.01-5.06.51-9.89-1.5-14.5-5.92-.81-11.75-.64-17.5.5-2.83,37.92-1.06,76.04,0,114,2.87,23.29,28.12,39.04,50.5,33.5,28.73-23.64,49.79-55.63,78-79.5,30.09,14.12-61.1,79.59-70,96,.21,5.38,7.34,4.05,11,3.5,3.58-4.49,6.91-9.16,10-14,9.81.36,19.65.86,29.5,1.5,8.91-.42,17.74-1.42,26.5-3,1.6-.27,2.93.07,4,1-15.78-3.84-21.5,12.37-18,25-10.61-.41-21.11-1.74-31.5-4-7.61.91-10.28,4.91-8,12,1.42.96,2.92,1.79,4.5,2.5,12,.54,24,1.04,36,1.5v43c-5.01.17-10.01,0-15-.5-2.69-2.69-5.85-4.53-9.5-5.5-10.51,3.9-11.34,9.4-2.5,16.5,9.84,1.1,19.67,1.93,29.5,2.5,4.5,11.46-16.91,16.66-.5,27.5,17.33-.36,34.66-.69,52-1-1.45,17.13,25.68,12.02,34.5,5.5,4.6-6.19,1.3-13.99,1.5-21-6,.5-8.17-2.17-6.5-8,8.48,4.42,33.56,1.8,20.5-11.5-7.33-.17-14.66,0-22,.5.32-15.38-.02-30.72-1-46,11.36-1.56,22.57,3.69,34,1.5,16.4-17.17-24.76-11.69-33-12.5,1.96-29.2-5.06-21.38-28-26.5,15.17-2.18,29.14,4.44,44,6,5.37,7.48,13.76,16.71,23.5,10.5.67-1.33.67-2.67,0-4-16.31-15.97-32.31-32.31-48-49-9.85-13.85-34.19-30.4-27-49,3.71-4.31,9.21-.52,12,3,22.13,25.8,44.63,51.3,67.5,76.5,7.01,7.5,15.67,11,26,10.5,1.77.96,3.77,1.29,6,1,.32,44.01-.18,88.01-1.5,132-3.57,14.4-12.73,22.07-27.5,23-84.05-1.1-169.84-12.99-253-9.51-38.34,3.29-75.95,12.12-114,17.51-.67-.33-1.33-.67-2-1,11.43-34.1,11.32-74.61-7.5-106-30.68-41.2-78.02-6.88-87,33-10.25,30.69-4.59,61.88,5.5,91-26.99,2.5-53.33,8-79,16.5-10.29,2.65-31.73,1.37-38.5,8.5-2.74,15.51-12.85,38.1-31.5,35.5,8.25-10.94,19.22-20.41,23-34-1.08-1.37-1.92-2.87-2.5-4.5v-50c-2.54-30.87-42.89-51.26-63-23-19.54,28.4-18.44,62.15-8.5,94-24.98,7.1-50.48,8.15-68.5-14-.83-62.24-.66-124.4.5-186.5,112.73-57.52,220.53-124.3,331-186,56.67-30.38,115.11-57.82,169-93,22.86-9.58,48.28-7.78,72.5-6.5,3.92.64,7.09-.53,9.5-3.5,3.79-.84,7.46-.5,11,1,3.11,8.78-8.9,8.92-13.5,4.5-1.24,15.48,16.21,16.27,23.5,5.5,4.04-.83,8.04-.66,12,.5.98,12.72,18.52,19.89,22.5,5,.74-1.07,1.74-1.74,3-2,3.74,1.39,7.58,2.39,11.5,3,1.35,16.6,19.44,20.4,26.5,5,62.96,12.99,86.13,25.2,75.5,94-39.34-5-78.67-10-118-15v160c-6.28-.09-12.28-1.09-18-3Z"/>
  <path class="cls-6" d="M783.5,342.5c4.49.03,10.68-.85,13,4-3.85,1.31-14.86,2.6-13-4Z"/>
  <path class="cls-3" d="M823.5,348.5c4.59-1.25,18.48,2.99,8,6.5-6.05,1.42-8.72-.74-8-6.5Z"/>
  <path class="cls-2" d="M685.5,358.5c62.73,3.41,124.13,19.35,186,29.5,6.95,1.38,12.45,4.88,16.5,10.5.94,8.65,4.78,23.81-4.5,28.5-66.49-5.84-132.59-22.11-199-31-14.62-6.85-13.19-30.89,1-37.5Z"/>
  <path class="cls-10" d="M336.5,370.5c42.12,5.56,84.12,11.73,126,18.5-7.83,20.66-15.17,41.5-22,62.5-30.05-5.17-60.05-10.67-90-16.5-5.45-3.12-9.95-7.29-13.5-12.5-.5-17.33-.67-34.66-.5-52Z"/>
  <path class="cls-2" d="M778.5,517.5v76c-20.91,3.99-41.71,4.32-63,2.5-3.09,4.84-6.42,9.51-10,14-3.65.55-10.79,1.87-11-3.5,8.83-16.36,100.07-81.81,70-96-28.21,23.87-49.27,55.87-78,79.5-22.39,5.54-47.61-10.21-50.5-33.5-1.06-37.96-2.83-76.09,0-114,5.75-1.14,11.58-1.31,17.5-.5,2.01,4.61,2.51,9.44,1.5,14.5-2.29,1.29-4.29,2.96-6,5,.13,17.32.47,34.66,1,52,1.89,3.56,4.72,6.06,8.5,7.5,9.06,1.03,22.37,2.09,24.5-9.5-.55-15.66-.55-31.33,0-47-2.25-5.55-6.42-8.21-12.5-8,3.22-35.8-12.71-30.94-41-31,.78-4.31,1.44-8.65,2-13,49.62-.38,98.21,12.32,147,20v85Z"/>
  <path class="cls-2" d="M606.5,421.5c3.61-.29,7.11.04,10.5,1-.47,99.66-.97,199.33-1.5,299-8.61,1.33-17.28,1.99-26,2-.33-97.34,0-194.67,1-292,5.4-3.36,10.73-6.69,16-10Z"/>
  <path class="cls-10" d="M162.5,423.5c81.77,13.66,163.43,27.82,245,42.5-12.03,9.15-27.07,13.32-40,21-13.33,8.33-26.67,16.67-40,25-60.81-11.81-164.47-2.61-165-88.5Z"/>
  <path class="cls-2" d="M563.5,438.5h6c.27,97.34-.06,194.67-1,292-8.8-.41-17.3.93-25.5,4-.5-44-.67-88-.5-132,3.07-.52,6.07-1.35,9-2.5-18.05,10.4-5.52-132.33-8.5-149.5,6.65-4.4,13.48-8.4,20.5-12Z"/>
  <path class="cls-2" d="M502.5,465.5c7.47-1.24,12.97,1.43,16.5,8,.56,20.67,1.06,41.33,1.5,62,2.31,45.41-11.59,55.85-55,62.5-6.05-3.25-9.22-8.42-9.5-15.5-.36-28.01-.03-56.01,1-84,6.61-19.31,29.27-24.37,45.5-33Z"/>
  <path class="cls-7" d="M914.5,478.5c32.68-2.17,26.76,10.46,29,36,5.19.18,9.02,2.51,11.5,7-1.28,10.79,3.96,53.24-5.5,56.5-18.88,5.1-27.22-1.9-25-21,1.67-11.86-.41-23.69.5-35.5,7.2-13.3,7.52-31.47-12.5-28,.29-5.06.96-10.06,2-15Z"/>
  <path class="cls-2" d="M422.5,505.5c10.44-1.06,16.27,3.61,17.5,14,.2,26.34-.14,52.67-1,79-3.72,18.28-25.09,25.29-41.5,26.5-3.81-2.12-6.31-5.29-7.5-9.5-.48-19.5-.98-39-1.5-58.5-6.01-24.93,13.13-42.64,34-51.5Z"/>
  <path class="cls-5" d="M199.5,513.5c31.69.87,64.93,9.77,97,13.5-48.05,31.7-68.27,51.86-97-13.5Z"/>
  <path class="cls-2" d="M355.5,540.5c17.53-1.44,18.37,15.33,18,28.5-1.15,17.5-1.32,35-.5,52.5-1.65,18.22-20.56,28.54-37.5,26.5-6.21-3.26-9.21-8.43-9-15.5-.08-22.68.42-45.35,1.5-68,5.9-11.85,15.07-19.85,27.5-24Z"/>
  <path class="cls-11" d="M778.5,517.5c1,25.49,1.33,51.16,1,77-1.21.73-2.54,1.07-4,1-1.07-.93-2.4-1.27-4-1,2.11-.97,4.44-1.3,7-1v-76Z"/>
  <path class="cls-2" d="M296.5,571.5c6.81-.79,11.65,1.87,14.5,8,.43,16.34.93,32.67,1.5,49,4.05,20.79-10.13,45.01-33,42.5-15.56-5.72-8.54-54.95-9.5-70.5.12-15.44,14.69-22.66,26.5-29Z"/>
  <path class="cls-3" d="M917.5,602.5c.17-.99-.16-1.66-1-2,.14-1.76-.19-3.43-1-5,7-1.33,14-1.33,21,0-3.78,6.55-12.26,7.74-19,7Z"/>
  <path class="cls-2" d="M240.5,601.5c7.12-1.36,11.95,1.31,14.5,8,.08,19.98.08,39.98,0,60-3.46,15.31-12.96,22.14-28.5,20.5-11.05-6.88-3.19-57.42-4.5-72.5,4.31-7.56,10.47-12.89,18.5-16Z"/>
  <path class="cls-8" d="M916.5,600.5c.84.34,1.17,1.01,1,2-2.47.14-4.99.22-7-1,2.23.29,4.23-.04,6-1Z"/>
  <path class="cls-2" d="M508.5,602.5c23.04-3.47,19.24,29.78-1,24.5-8.63-6.04-8.3-19.19,1-24.5Z"/>
  <path class="cls-5" d="M771.5,608.5c18.7-.2,37.37.47,56,2,1.06,4.22,1.06,8.39,0,12.5-18.32-.38-36.66-.88-55-1.5-.79-4.28-1.13-8.62-1-13Z"/>
  <path class="cls-2" d="M192.5,622.5c5.84,0,10,2.66,12.5,8,1.93,19.98,1.93,39.98,0,60-3.83,12.48-12,17.65-24.5,15.5-10.22-14.98-1.21-45.15-5-64,.56-9.29,9.95-15.13,17-19.5Z"/>
  <path class="cls-2" d="M662.5,631.5c17.17-2.32,25.67,5.02,25.5,22-10.75,26.73-47.01,5.47-31-18,2.17-.99,4-2.32,5.5-4Z"/>
  <path class="cls-10" d="M770.5,632.5c19.03-.07,38.03.6,57,2v44c-18.67-1-37.33-2-56-3-.36-14.33-.7-28.67-1-43Z"/>
  <path class="cls-2" d="M883.5,645.5c33.81-5.27,25.64,45.03-3,31.5-10.72-9.01-8.52-24.38,3-31.5Z"/>
  <path class="cls-7" d="M470.5,682.5c39.05-4.67,38.22,69.01,8,80.5-5.27,1.07-10.27.4-15-2-23.58-20.33-18.95-62.26,7-78.5Z"/>
  <path class="cls-5" d="M773.5,687.5c18.33,1.04,36.66,2.04,55,3,.27,2.62-.07,5.12-1,7.5-17.66.81-35.33,1.31-53,1.5-.33-4-.67-8-1-12Z"/>
  <path class="cls-2" d="M636.5,691.5c1.37-.16,2.71.01,4,.5-1.69,1.4-2.36,3.23-2,5.5,30.56,1.79,30.27,17.96,9,35.5-4.12.44-8.12-.06-12-1.5-.14-13.35.19-26.68,1-40Z"/>
  <path class="cls-2" d="M204.5,740.5h3v13c-9.7,2.17-19.37,4.51-29,7-1.3-4.22-1.3-8.38,0-12.5,8.87-2.21,17.54-4.71,26-7.5Z"/>
  <path class="cls-5" d="M259.5,749.5c10.35.84,16.52,6.51,18.5,17,.6,16.12,2.62,35.63-10.5,47.5-21.95,6.34-20.84-33.09-19.5-46.5,2.1-7.22,5.93-13.22,11.5-18Z"/>
  <path class="cls-2" d="M204.5,762.5h3v13c-9.72,1.74-19.38,3.74-29,6-3.08-2.83-2.07-7.97-1-11.5,9.25-2.06,18.25-4.56,27-7.5Z"/>
  <path class="cls-2" d="M197.5,784.5h10v13c-10.37,1.84-20.7,3.84-31,6-5.47-14.41,11.57-15.73,21-19Z"/>
  <path class="cls-5" d="M332.5,802.5h22c1.82,17.71-11.43,33.26-26,41.5-5.49.28-14.55,2.55-17-4,8.63-11.29,21.52-22.11,21-37.5Z"/>
  <path class="cls-9" d="M465.5,807.5h10c-.01,27.68-25.07,40.13-50,37,4.6-11.1,12.6-18.6,24-22.5,4.95-5.46,10.29-10.3,16-14.5Z"/>
  <path class="cls-4" d="M397.5,811.5c5.04.09,10.04.59,15,1.5,3.12,12.26-1.21,20.43-13,24.5-8.5-2.82-9.57-21.48-2-26Z"/>
</svg>