<?xml version="1.0" encoding="UTF-8"?>
<svg id="Layer_1" xmlns="http://www.w3.org/2000/svg" version="1.1" viewBox="0 0 1024 1024">
  <!-- Generator: Adobe Illustrator 29.4.0, SVG Export Plug-In . SVG Version: 2.1.0 Build 152)  -->
  <defs>
    <style>
      .st0, .st1 {
        stroke: #fff;
        stroke-miterlimit: 10;
      }

      .st1 {
        fill: #fff;
      }
    </style>
  </defs>
  <path class="st0" d="M0-.5h1024V1023.5H0V-.5Z"/>
  <path class="st1" d="M84.5,147.5c78.9,16,157.9,31.8,237,47.5,1,22.4,1.3,44.9,1,67.5-64.3-11.1-128.3-23.6-192-37.5-31.9-12.2-47.1-44.5-46-77.5Z"/>
  <path class="st1" d="M473.5,172.5c64.3.5,128.7.6,193,.5,18.9.5,40.5,6.2,50.5,23.5,5.8,26.6-6.1,52.7-18,76-2,4.5-2.8,9.1-2.5,14,7.7.5,15.4,1.3,23,2.5,2.9,3.2,2.3,8.2,1,12-48.2,15.7-92.3,39.3-135,66-1.3.7-2.5.5-3.5-.5-2.5,4.2-6,7.4-10.5,9.5-36.1,14.3-68.8,38-106,49,19.1-34.9,41.1-67.7,66-98.5-2-.9-4-.7-6,.5-26.9,13-54.7,28.6-85,30,23.2-31.6,47.6-62.5,73-92.5-1.2-1.1-2.6-1.3-4-.5-21.3,9.9-43.6,15.2-67,16,25.5-28.6,49.1-59.7,80-83-19.9.4-42.4-2.7-49-24.5Z"/>
  <path class="st1" d="M337.5,199.5c36.3,9.5,87.5,5.5,101,49,0,1.8-.6,3.5-1.5,5-6.3,7.2-11.3,15.2-15,24-27.4,1.5-54.9-6.6-81.5-12.5-1.7-21.7-2.7-43.6-3-65.5Z"/>
  <path class="st0" d="M689.5,204.5c7.4,54.3-71.6,54.8-67,1,22.5.3,44.8,0,67-1Z"/>
  <path class="st1" d="M739.5,208.5c61.2-2.1,91.1,58.9,56.5,108-3.9-41.6-40-46.4-74.5-44,6.9-21,15.8-41.8,18-64Z"/>
  <path class="st0" d="M744.5,228.5c5,.7,13.4-.6,16,4.5-2.6,7.1-7.6,9.8-15,8-1-4.1-1.3-8.2-1-12.5Z"/>
  <path class="st1" d="M107.5,241.5c71.4,13.5,142.7,27.3,214,41.5,4.3,20-.1,42.7-.5,63.5-57.9-6.1-116.6-21.9-174.5-32.5-30-14.9-43-39-39-72.5Z"/>
  <path class="st1" d="M337.5,286.5c28.1,1.5,55.2,10.6,83,14.5,8.4.8,25.3-.5,31,5.5-13.2,18.8-26.7,37.8-39,57-68.1-16.1-81.5,5-75-77Z"/>
  <path class="st1" d="M131.5,330.5c63.3,12.7,126.6,25.2,190,37.5.8,20.5,1.1,41,1,61.5-47.1-2.8-95.1-14.9-142-23.5-35.6-12.6-51.9-37.8-49-75.5Z"/>
  <path class="st1" d="M779.5,594.5c.2-54.3-1.7-107.9-1-162-48.8-7.7-97.4-20.4-147-20-.6,4.4-1.2,8.7-2,13,28.4,0,44.2-4.8,41,31,6.1-.2,10.2,2.5,12.5,8-.5,15.7-.5,31.3,0,47-2.1,11.6-15.4,10.5-24.5,9.5-3.8-1.4-6.6-3.9-8.5-7.5-.5-17.3-.9-34.7-1-52,1.7-2,3.7-3.7,6-5,1-5.1.5-9.9-1.5-14.5-5.9-.8-11.8-.6-17.5.5-2.8,37.9-1.1,76,0,114,2.9,23.3,28.1,39,50.5,33.5,28.7-23.6,49.8-55.6,78-79.5,30.1,14.1-61.1,79.6-70,96,.2,5.4,7.3,4,11,3.5,3.6-4.5,6.9-9.2,10-14,9.8.4,19.7.9,29.5,1.5,8.9-.4,17.7-1.4,26.5-3,1.6-.3,2.9,0,4,1-15.8-3.8-21.5,12.4-18,25-10.6-.4-21.1-1.7-31.5-4-7.6.9-10.3,4.9-8,12,1.4,1,2.9,1.8,4.5,2.5,12,.5,24,1,36,1.5v43c-5,.2-10,0-15-.5-2.7-2.7-5.8-4.5-9.5-5.5-10.5,3.9-11.3,9.4-2.5,16.5,9.8,1.1,19.7,1.9,29.5,2.5,4.5,11.5-16.9,16.7-.5,27.5,17.3-.4,34.7-.7,52-1-1.5,17.1,25.7,12,34.5,5.5,4.6-6.2,1.3-14,1.5-21-6,.5-8.2-2.2-6.5-8,8.5,4.4,33.6,1.8,20.5-11.5-7.3-.2-14.7,0-22,.5.3-15.4,0-30.7-1-46,11.4-1.6,22.6,3.7,34,1.5,16.4-17.2-24.8-11.7-33-12.5,2-29.2-5.1-21.4-28-26.5,15.2-2.2,29.1,4.4,44,6,5.4,7.5,13.8,16.7,23.5,10.5.7-1.3.7-2.7,0-4-16.3-16-32.3-32.3-48-49-9.8-13.8-34.2-30.4-27-49,3.7-4.3,9.2-.5,12,3,22.1,25.8,44.6,51.3,67.5,76.5,7,7.5,15.7,11,26,10.5,1.8,1,3.8,1.3,6,1,.3,44-.2,88-1.5,132-3.6,14.4-12.7,22.1-27.5,23-84-1.1-169.8-13-253-9.5-38.3,3.3-76,12.1-114,17.5-.7-.3-1.3-.7-2-1,11.4-34.1,11.3-74.6-7.5-106-30.7-41.2-78-6.9-87,33-10.2,30.7-4.6,61.9,5.5,91-27,2.5-53.3,8-79,16.5-10.3,2.7-31.7,1.4-38.5,8.5-2.7,15.5-12.9,38.1-31.5,35.5,8.2-10.9,19.2-20.4,23-34-1.1-1.4-1.9-2.9-2.5-4.5v-50c-2.5-30.9-42.9-51.3-63-23-19.5,28.4-18.4,62.2-8.5,94-25,7.1-50.5,8.2-68.5-14-.8-62.2-.7-124.4.5-186.5,112.7-57.5,220.5-124.3,331-186,56.7-30.4,115.1-57.8,169-93,22.9-9.6,48.3-7.8,72.5-6.5,3.9.6,7.1-.5,9.5-3.5,3.8-.8,7.5-.5,11,1,3.1,8.8-8.9,8.9-13.5,4.5-1.2,15.5,16.2,16.3,23.5,5.5,4-.8,8-.7,12,.5,1,12.7,18.5,19.9,22.5,5,.7-1.1,1.7-1.7,3-2,3.7,1.4,7.6,2.4,11.5,3,1.3,16.6,19.4,20.4,26.5,5,63,13,86.1,25.2,75.5,94-39.3-5-78.7-10-118-15v160c-6.3,0-12.3-1.1-18-3Z"/>
  <path class="st1" d="M783.5,342.5c4.5,0,10.7-.9,13,4-3.8,1.3-14.9,2.6-13-4Z"/>
  <path class="st1" d="M823.5,348.5c4.6-1.2,18.5,3,8,6.5-6,1.4-8.7-.7-8-6.5Z"/>
  <path class="st0" d="M685.5,358.5c62.7,3.4,124.1,19.4,186,29.5,7,1.4,12.5,4.9,16.5,10.5.9,8.6,4.8,23.8-4.5,28.5-66.5-5.8-132.6-22.1-199-31-14.6-6.9-13.2-30.9,1-37.5Z"/>
  <path class="st1" d="M336.5,370.5c42.1,5.6,84.1,11.7,126,18.5-7.8,20.7-15.2,41.5-22,62.5-30-5.2-60-10.7-90-16.5-5.5-3.1-10-7.3-13.5-12.5-.5-17.3-.7-34.7-.5-52Z"/>
  <path class="st0" d="M778.5,517.5v76c-20.9,4-41.7,4.3-63,2.5-3.1,4.8-6.4,9.5-10,14-3.7.5-10.8,1.9-11-3.5,8.8-16.4,100.1-81.8,70-96-28.2,23.9-49.3,55.9-78,79.5-22.4,5.5-47.6-10.2-50.5-33.5-1.1-38-2.8-76.1,0-114,5.8-1.1,11.6-1.3,17.5-.5,2,4.6,2.5,9.4,1.5,14.5-2.3,1.3-4.3,3-6,5,.1,17.3.5,34.7,1,52,1.9,3.6,4.7,6.1,8.5,7.5,9.1,1,22.4,2.1,24.5-9.5-.5-15.7-.5-31.3,0-47-2.2-5.5-6.4-8.2-12.5-8,3.2-35.8-12.7-30.9-41-31,.8-4.3,1.4-8.6,2-13,49.6-.4,98.2,12.3,147,20v85Z"/>
  <path class="st0" d="M606.5,421.5c3.6-.3,7.1,0,10.5,1-.5,99.7-1,199.3-1.5,299-8.6,1.3-17.3,2-26,2-.3-97.3,0-194.7,1-292,5.4-3.4,10.7-6.7,16-10Z"/>
  <path class="st1" d="M162.5,423.5c81.8,13.7,163.4,27.8,245,42.5-12,9.1-27.1,13.3-40,21-13.3,8.3-26.7,16.7-40,25-60.8-11.8-164.5-2.6-165-88.5Z"/>
  <path class="st0" d="M563.5,438.5h6c.3,97.3,0,194.7-1,292-8.8-.4-17.3.9-25.5,4-.5-44-.7-88-.5-132,3.1-.5,6.1-1.3,9-2.5-18,10.4-5.5-132.3-8.5-149.5,6.7-4.4,13.5-8.4,20.5-12Z"/>
  <path class="st0" d="M502.5,465.5c7.5-1.2,13,1.4,16.5,8,.6,20.7,1.1,41.3,1.5,62,2.3,45.4-11.6,55.8-55,62.5-6-3.2-9.2-8.4-9.5-15.5-.4-28,0-56,1-84,6.6-19.3,29.3-24.4,45.5-33Z"/>
  <path class="st1" d="M914.5,478.5c32.7-2.2,26.8,10.5,29,36,5.2.2,9,2.5,11.5,7-1.3,10.8,4,53.2-5.5,56.5-18.9,5.1-27.2-1.9-25-21,1.7-11.9-.4-23.7.5-35.5,7.2-13.3,7.5-31.5-12.5-28,.3-5.1,1-10.1,2-15Z"/>
  <path class="st0" d="M422.5,505.5c10.4-1.1,16.3,3.6,17.5,14,.2,26.3-.1,52.7-1,79-3.7,18.3-25.1,25.3-41.5,26.5-3.8-2.1-6.3-5.3-7.5-9.5-.5-19.5-1-39-1.5-58.5-6-24.9,13.1-42.6,34-51.5Z"/>
  <path class="st1" d="M199.5,513.5c31.7.9,64.9,9.8,97,13.5-48.1,31.7-68.3,51.9-97-13.5Z"/>
  <path class="st0" d="M355.5,540.5c17.5-1.4,18.4,15.3,18,28.5-1.1,17.5-1.3,35-.5,52.5-1.6,18.2-20.6,28.5-37.5,26.5-6.2-3.3-9.2-8.4-9-15.5,0-22.7.4-45.3,1.5-68,5.9-11.8,15.1-19.8,27.5-24Z"/>
  <path class="st0" d="M778.5,517.5c1,25.5,1.3,51.2,1,77-1.2.7-2.5,1.1-4,1-1.1-.9-2.4-1.3-4-1,2.1-1,4.4-1.3,7-1v-76Z"/>
  <path class="st0" d="M296.5,571.5c6.8-.8,11.6,1.9,14.5,8,.4,16.3.9,32.7,1.5,49,4,20.8-10.1,45-33,42.5-15.6-5.7-8.5-55-9.5-70.5.1-15.4,14.7-22.7,26.5-29Z"/>
  <path class="st0" d="M917.5,602.5c.2-1-.2-1.7-1-2,.1-1.8-.2-3.4-1-5,7-1.3,14-1.3,21,0-3.8,6.5-12.3,7.7-19,7Z"/>
  <path class="st0" d="M240.5,601.5c7.1-1.4,11.9,1.3,14.5,8,0,20,0,40,0,60-3.5,15.3-13,22.1-28.5,20.5-11.1-6.9-3.2-57.4-4.5-72.5,4.3-7.6,10.5-12.9,18.5-16Z"/>
  <path class="st0" d="M916.5,600.5c.8.3,1.2,1,1,2-2.5.1-5,.2-7-1,2.2.3,4.2,0,6-1Z"/>
  <path class="st0" d="M508.5,602.5c23-3.5,19.2,29.8-1,24.5-8.6-6-8.3-19.2,1-24.5Z"/>
  <path class="st0" d="M771.5,608.5c18.7-.2,37.4.5,56,2,1.1,4.2,1.1,8.4,0,12.5-18.3-.4-36.7-.9-55-1.5-.8-4.3-1.1-8.6-1-13Z"/>
  <path class="st0" d="M192.5,622.5c5.8,0,10,2.7,12.5,8,1.9,20,1.9,40,0,60-3.8,12.5-12,17.7-24.5,15.5-10.2-15-1.2-45.2-5-64,.6-9.3,9.9-15.1,17-19.5Z"/>
  <path class="st0" d="M662.5,631.5c17.2-2.3,25.7,5,25.5,22-10.8,26.7-47,5.5-31-18,2.2-1,4-2.3,5.5-4Z"/>
  <path class="st0" d="M770.5,632.5c19,0,38,.6,57,2v44c-18.7-1-37.3-2-56-3-.4-14.3-.7-28.7-1-43Z"/>
  <path class="st0" d="M883.5,645.5c33.8-5.3,25.6,45-3,31.5-10.7-9-8.5-24.4,3-31.5Z"/>
  <path class="st1" d="M470.5,682.5c39-4.7,38.2,69,8,80.5-5.3,1.1-10.3.4-15-2-23.6-20.3-19-62.3,7-78.5Z"/>
  <path class="st0" d="M773.5,687.5c18.3,1,36.7,2,55,3,.3,2.6,0,5.1-1,7.5-17.7.8-35.3,1.3-53,1.5-.3-4-.7-8-1-12Z"/>
  <path class="st0" d="M636.5,691.5c1.4-.2,2.7,0,4,.5-1.7,1.4-2.4,3.2-2,5.5,30.6,1.8,30.3,18,9,35.5-4.1.4-8.1,0-12-1.5-.1-13.3.2-26.7,1-40Z"/>
  <path class="st0" d="M204.5,740.5h3v13c-9.7,2.2-19.4,4.5-29,7-1.3-4.2-1.3-8.4,0-12.5,8.9-2.2,17.5-4.7,26-7.5Z"/>
  <path class="st1" d="M259.5,749.5c10.4.8,16.5,6.5,18.5,17,.6,16.1,2.6,35.6-10.5,47.5-21.9,6.3-20.8-33.1-19.5-46.5,2.1-7.2,5.9-13.2,11.5-18Z"/>
  <path class="st0" d="M204.5,762.5h3v13c-9.7,1.7-19.4,3.7-29,6-3.1-2.8-2.1-8-1-11.5,9.2-2.1,18.2-4.6,27-7.5Z"/>
  <path class="st0" d="M197.5,784.5h10v13c-10.4,1.8-20.7,3.8-31,6-5.5-14.4,11.6-15.7,21-19Z"/>
  <path class="st1" d="M332.5,802.5h22c1.8,17.7-11.4,33.3-26,41.5-5.5.3-14.5,2.5-17-4,8.6-11.3,21.5-22.1,21-37.5Z"/>
  <path class="st1" d="M465.5,807.5h10c0,27.7-25.1,40.1-50,37,4.6-11.1,12.6-18.6,24-22.5,5-5.5,10.3-10.3,16-14.5Z"/>
  <path class="st1" d="M397.5,811.5c5,0,10,.6,15,1.5,3.1,12.3-1.2,20.4-13,24.5-8.5-2.8-9.6-21.5-2-26Z"/>
</svg>